<svg width="80" height="80" fill="none" xmlns="http://www.w3.org/2000/svg"><path fill-rule="evenodd" clip-rule="evenodd" d="M75.892 43.182 78 41.094l-9.94-9.845V4.398H54.205v13.127L40.45 4 3 41.193l2.108 2.089 7.832-7.757v37.591H9.024V76h64.157v-2.884h-5.12v-37.69l7.83 7.756Zm-18.775-35.8h7.931v20.983l-7.931-7.857V7.381Zm7.931 65.635H15.952V32.54L40.45 8.177 65.048 32.54v40.476ZM33.121 68.54h16.064V44.773H33.12v23.768Zm13.052-2.884h-10.14v-18h10.14v18ZM40.85 39.304c-4.216 0-7.73-3.48-7.73-7.757 0-4.276 3.413-7.657 7.73-7.657 4.318 0 7.832 3.38 7.832 7.657 0 4.276-3.514 7.757-7.831 7.757Zm5.02-7.757c0-2.785-2.309-4.972-5.02-4.972-2.71 0-5.02 2.287-5.02 4.972 0 2.784 2.31 4.972 5.02 4.972 2.812 0 5.02-2.287 5.02-4.972Zm-22.79 13.226h-3.013v3.879h3.012v-3.879Zm3.011 0h3.012v3.879h-3.012v-3.879ZM23.08 50.74h-3.012v3.879h3.012V50.74Zm3.012 0h3.012v3.879h-3.012V50.74Zm29.117-5.967h-3.012v3.879h3.012v-3.879Zm3.012 0h3.012v3.879H58.22v-3.879Zm-3.012 5.967h-3.012v3.879h3.012V50.74Zm3.012 0h3.012v3.879H58.22V50.74Z" fill="#81B3D2"/></svg>