<svg width="80" height="80" fill="none" xmlns="http://www.w3.org/2000/svg"><path fill-rule="evenodd" clip-rule="evenodd" d="M72.531 36.375v-.001c.024-.828.055-1.945-.017-2.233C71.816 18.518 57.454 6 39.801 6 22.146 6 7.684 18.518 6.986 34.14v3.005h65.527c0-.168.008-.447.017-.77Zm-32.73-27.37c15.957 0 29.123 11.216 29.721 25.136H9.98c.698-13.92 13.864-25.137 29.822-25.137ZM23.244 48.861l-5.386-4.006-5.485 4.006-6.383-4.707 1.795-2.403 4.588 3.305 5.485-4.006 5.386 4.006 5.486-4.006 5.485 4.006 5.486-4.006 5.386 4.006 5.485-4.006 5.486 4.006 5.485-4.006 5.486 4.006 4.588-3.305 1.695 2.403-6.283 4.707-5.486-4.006-5.485 4.006-5.486-4.006-5.485 4.006-5.386-4.006-5.486 4.006-5.485-4.006-5.486 4.006ZM6.29 52.067H73.71c2.394 0 4.289 2.003 4.289 4.206v3.505c0 2.403-1.995 4.306-4.289 4.306h-.997v1.001c0 5.408-4.388 9.915-9.874 9.915H17.16c-5.386 0-9.874-4.406-9.874-9.915v-1H6.29C3.895 64.084 2 62.18 2 59.877v-3.505c0-2.303 1.895-4.306 4.289-4.306Zm56.65 19.929c3.79 0 6.883-3.105 6.883-6.91v-1.002H10.178v1.001c0 3.806 3.092 6.91 6.882 6.91h45.88ZM73.712 61.08c.698 0 1.297-.601 1.297-1.302h.1v-3.405c0-.701-.599-1.302-1.297-1.302H6.289c-.698 0-1.297.6-1.297 1.202v3.505c0 .7.599 1.302 1.297 1.302H73.71ZM41.895 21.623a1.999 1.999 0 0 1-1.995 2.003 1.999 1.999 0 0 1-1.994-2.003c0-1.106.893-2.003 1.994-2.003 1.102 0 1.995.897 1.995 2.003Zm-9.974-3.005a1.999 1.999 0 0 0 1.995-2.002 1.999 1.999 0 0 0-1.995-2.003 1.999 1.999 0 0 0-1.994 2.003c0 1.106.893 2.002 1.994 2.002Zm17.953-2.002a1.999 1.999 0 0 1-1.995 2.002 1.999 1.999 0 0 1-1.994-2.002c0-1.107.893-2.003 1.994-2.003 1.102 0 1.995.896 1.995 2.003Z" fill="#81B3D2"/></svg>